<svg id="visual" viewBox="0 0 900 600" width="900" height="600" xmlns="http://www.w3.org/2000/svg" xmlns:xlink="http://www.w3.org/1999/xlink" version="1.1"><rect x="0" y="0" width="900" height="600" fill="#002233"></rect><path d="M0 476L10 474.3C20 472.7 40 469.3 60 465.2C80 461 100 456 120 451.7C140 447.3 160 443.7 180 451C200 458.3 220 476.7 240 480.2C260 483.7 280 472.3 300 465.3C320 458.3 340 455.7 360 459.2C380 462.7 400 472.3 420 473C440 473.7 460 465.3 480 460.8C500 456.3 520 455.7 540 455C560 454.3 580 453.7 600 455C620 456.3 640 459.7 660 466.5C680 473.3 700 483.7 720 484.5C740 485.3 760 476.7 780 468.7C800 460.7 820 453.3 840 459.3C860 465.3 880 484.7 890 494.3L900 504L900 601L890 601C880 601 860 601 840 601C820 601 800 601 780 601C760 601 740 601 720 601C700 601 680 601 660 601C640 601 620 601 600 601C580 601 560 601 540 601C520 601 500 601 480 601C460 601 440 601 420 601C400 601 380 601 360 601C340 601 320 601 300 601C280 601 260 601 240 601C220 601 200 601 180 601C160 601 140 601 120 601C100 601 80 601 60 601C40 601 20 601 10 601L0 601Z" fill="#0066FF" stroke-linecap="round" stroke-linejoin="miter"></path></svg>